<svg width="52" height="25" viewBox="0 0 52 25" xmlns="http://www.w3.org/2000/svg"><title>s-maestro</title><desc>Created with Sketch.</desc><g fill="none"><g><g id="Group"><ellipse fill="#009CDC" cx="11.97" cy="12" rx="11.97" ry="12"/><path d="M28.098 0c-3.15 0-5.922 1.137-8.064 3.158-.378.379-.882.758-1.26 1.263h2.394c.378.379.63.884.882 1.263h-4.284c-.252.379-.504.884-.63 1.263h5.67c.252.379.378.884.504 1.263h-6.678l-.378 1.263h7.308c.126.758.252 1.642.252 2.526 0 1.389-.252 2.653-.63 3.789h-6.678c.126.379.252.884.504 1.263h5.67l-.63 1.263h-4.284c.252.505.63.884.882 1.263h2.394c-.378.505-.756.884-1.26 1.263 2.142 1.895 4.914 3.158 8.064 3.158 6.552 0 11.97-5.432 11.97-12 .252-6.568-5.166-12-11.718-12z" id="Shape" fill="#ED2233"/></g><path d="M38.43 18.695c0-.253.126-.379.378-.379s.378.126.378.379-.126.379-.378.379-.378-.126-.378-.379zm.378.253c.126 0 .252-.126.252-.253 0-.126-.126-.253-.252-.253s-.252.126-.252.253c0 .126.126.253.252.253zm0-.126l-.126-.379h.252v.378h-.126v-.126.126zm0-.126z" fill="#FCB131"/></g><g><path d="M10.23 15.291h-1.459l.858-4.575-1.977 4.575h-1.22l-.24-4.549-.956 4.549h-1.327l1.12-5.951h2.294l.026 3.683 1.589-3.683h2.43l-1.138 5.951" fill="#003873"/><path d="M26.37 15.231c-.396.11-.704.157-1.038.157-.739 0-1.142-.375-1.142-1.063 0-.136.014-.281.043-.434l.087-.474.068-.383.67-3.694h1.437l-.209 1.111h.737l-.198 1.177h-.74l-.381 2.019-.025.199c0 .25.149.359.493.359.165 0 .292-.015.39-.046l-.191 1.071" fill="#003873"/><path d="M20.634 11.981c0 .611.34 1.032 1.113 1.348.592.244.684.315.684.536 0 .301-.261.437-.839.437-.437 0-.842-.061-1.31-.193l-.202 1.117.066.01.267.05.382.042c.348.028.616.041.805.041 1.542 0 2.255-.512 2.255-1.615 0-.664-.297-1.054-1.031-1.347-.613-.246-.683-.3-.683-.526 0-.26.243-.394.715-.394.286 0 .678.027 1.05.072l.209-1.12c-.378-.053-.953-.095-1.286-.095-1.634 0-2.2.744-2.195 1.637" fill="#003873"/><path d="M13.928 13.135l-.323-.021c-.819 0-1.233.249-1.233.737 0 .301.202.494.518.494.589 0 1.013-.495 1.038-1.21zm.975 2.156h-1.201l.029-.501c-.367.396-.853.583-1.516.583-.781 0-1.319-.538-1.319-1.321 0-1.179.934-1.866 2.537-1.866.166 0 .373.013.589.038.045-.159.056-.229.056-.315 0-.321-.252-.439-.926-.439-.412 0-.878.051-1.2.135l-.2.05-.129.032.199-1.088c.721-.186 1.196-.257 1.73-.257 1.241 0 1.898.491 1.898 1.42 0 .239-.023.421-.118.959-.123.842-.329 1.713-.428 2.571z" fill="#003873"/><path d="M18.951 12.308l.012-.248c0-.392-.252-.624-.683-.624-.46 0-.788.311-.921.868l1.593.004zm.701 2.879c-.495.133-.973.198-1.48.197-1.615-.001-2.456-.745-2.456-2.167 0-1.662 1.07-2.885 2.524-2.885 1.189 0 1.949.685 1.949 1.759 0 .357-.052.704-.177 1.194h-2.872l-.015.153c0 .562.428.846 1.267.846.516 0 .983-.095 1.5-.306l-.24 1.21z" fill="#003873"/><path d="M33.604 12.518c0-.506-.203-.984-.795-.984-.737 0-1.194.88-1.194 1.658 0 .656.313 1.097.829 1.087.313 0 .98-.43 1.113-1.184.031-.175.047-.369.047-.578zm1.467.578c-.215 1.61-1.327 2.325-2.805 2.325-1.634 0-2.295-1.004-2.295-2.231 0-1.716 1.117-2.878 2.844-2.878 1.498 0 2.295.957 2.295 2.184 0 .298-.001.319-.039.6z" fill="#003873"/><path d="M35.554 14.546h.043l.046-.006.02-.039-.019-.033-.049-.008h-.041v.085zm0 .189h-.076v-.332h.139l.084.016.042.084-.058.086.06.146h-.085l-.05-.131h-.056v.131zm.051.121c.157 0 .284-.127.284-.286 0-.159-.127-.288-.284-.288-.157 0-.285.129-.285.288 0 .159.127.286.285.286zm-.375-.286c0-.21.167-.379.375-.379.206 0 .375.169.375.379 0 .209-.169.379-.375.379-.208 0-.375-.17-.375-.379z" fill="#fff"/><path d="M10.591 14.949h-1.444l.859-4.575-1.978 4.575h-1.317l-.241-4.549-.862 4.549h-1.31l1.12-5.951h2.254l.119 3.684 1.59-3.684h2.348l-1.139 5.951" fill="#fff"/><path d="M26.735 14.888c-.395.11-.704.157-1.037.157-.74 0-1.143-.375-1.143-1.063 0-.136.015-.28.042-.434l.088-.473.069-.383.669-3.695h1.437l-.209 1.112h.738l-.198 1.175h-.742l-.38 2.019-.024.2c0 .25.148.36.493.36.164 0 .292-.016.389-.047l-.191 1.071" fill="#fff"/><path d="M30.448 11.499l-.034-.154.289-.758-.11-.013-.124-.027-.146-.013c-.474 0-.816.213-1.257.785l.151-.86h-1.497l-.89 4.832h1.435c.198-1.11.285-1.742.401-2.264.192-.872.834-1.267 1.291-1.179l.161.038.088.033.24-.42" fill="#003873"/><path d="M30.953 10.149l-.164-.053-.124-.028-.146-.013c-.474 0-.816.214-1.257.787l.127-.732h-1.309l-.881 4.839h1.445c.517-2.96.739-3.479 1.433-3.479l.183.012.168.036.524-1.369" fill="#fff"/><path d="M21.009 11.638c0 .611.341 1.033 1.114 1.349.591.243.682.315.682.535 0 .301-.261.436-.839.436-.436 0-.842-.059-1.31-.191l-.2 1.116.065.011.268.05.382.041c.347.028.616.041.805.041 1.542 0 2.254-.51 2.254-1.615 0-.665-.297-1.054-1.029-1.348-.613-.244-.684-.299-.684-.524 0-.261.243-.395.715-.395.286 0 .679.028 1.05.072l.208-1.12c-.378-.052-.952-.095-1.286-.095-1.636 0-2.201.743-2.197 1.636" fill="#fff"/><path d="M14.234 12.793l-.323-.02c-.819 0-1.233.248-1.233.736 0 .301.202.495.518.495.589 0 1.014-.496 1.038-1.21zm1.055 2.156h-1.201l.027-.502c-.365.397-.852.586-1.515.586-.783 0-1.319-.539-1.319-1.323 0-1.178.934-1.865 2.537-1.865.164 0 .373.013.589.038.044-.16.055-.229.055-.316 0-.321-.251-.44-.926-.44-.411 0-.879.052-1.2.135l-.199.052-.129.032.199-1.089c.721-.185 1.196-.256 1.73-.256 1.241 0 1.897.491 1.897 1.419 0 .239-.022.421-.118.959-.118.845-.333 1.712-.428 2.571z" fill="#fff"/><path d="M19.258 11.965l.012-.247c0-.393-.253-.624-.683-.624-.459 0-.789.311-.922.868l1.593.003zm.77 2.879c-.497.132-.975.198-1.482.198-1.614-.003-2.456-.745-2.456-2.168 0-1.662 1.071-2.885 2.525-2.885 1.188 0 1.948.686 1.948 1.759 0 .356-.051.704-.178 1.194h-2.872l-.015.153c0 .56.43.846 1.268.846.517 0 .983-.095 1.501-.306l-.24 1.209z" fill="#fff"/><path d="M33.957 12.136c0-.506-.204-.984-.796-.984-.737 0-1.194.881-1.194 1.658 0 .656.315 1.098.831 1.088.312 0 .98-.432 1.113-1.185.031-.175.047-.369.047-.577zm1.487.619c-.217 1.61-1.328 2.325-2.806 2.325-1.635 0-2.295-1.004-2.295-2.232 0-1.715 1.117-2.876 2.844-2.876 1.498 0 2.294.956 2.294 2.183 0 .299 0 .318-.037.6z" fill="#fff"/></g></g></svg>